<?xml version="1.0" standalone="no"?>
<!DOCTYPE svg PUBLIC "-//W3C//DTD SVG 20010904//EN"
 "http://www.w3.org/TR/2001/REC-SVG-20010904/DTD/svg10.dtd">
<svg version="1.0" xmlns="http://www.w3.org/2000/svg"
 width="300.000000pt" height="300.000000pt" viewBox="0 0 300.000000 300.000000"
 preserveAspectRatio="xMidYMid meet">
<metadata>
Created by potrace 1.10, written by Peter Selinger 2001-2011
</metadata>
<g transform="translate(0.000000,300.000000) scale(0.100000,-0.100000)"
fill="#000000" stroke="none">
<path d="M1075 2855 l-530 -142 0 -1249 0 -1248 190 -38 c105 -21 344 -69 533
-107 l342 -68 -1 96 c-1 104 -16 93 -18 -13 l-1 -58 -32 5 c-18 4 -55 10 -83
15 -27 5 -106 21 -175 36 -69 15 -260 54 -424 86 -165 33 -302 64 -306 70 -9
14 -7 2447 2 2455 4 4 47 18 95 30 48 13 133 35 188 50 380 104 721 192 728
188 4 -2 7 -28 8 -56 2 -102 17 -106 18 -4 1 53 0 97 -1 96 -2 -1 -241 -65
-533 -144z"/>
<path d="M2030 2833 c217 -2 398 -7 402 -11 11 -11 11 -2633 0 -2644 -4 -4
-185 -9 -402 -11 l-395 -2 412 -3 412 -2 0 1340 1 1340 -413 -2 -412 -3 395
-2z"/>
<path d="M1610 1500 l0 -1080 295 0 295 0 0 1080 0 1080 -295 0 -295 0 0
-1080z m555 3 c0 -573 -3 -1044 -6 -1047 -7 -8 -500 -9 -508 -1 -3 4 -6 475
-6 1048 l0 1042 133 5 c74 3 191 3 260 0 l127 -5 0 -1042z"/>
<path d="M1270 1445 l-135 -10 -3 -46 -3 -46 138 -9 c76 -6 139 -9 141 -8 2 1
2 30 0 65 l-3 64 -135 -10z m108 -59 l4 -29 -102 6 c-56 3 -103 7 -106 10 -2
2 -2 11 2 20 6 17 61 25 154 23 42 -1 45 -3 48 -30z"/>
</g>
</svg>
