<?xml version="1.0" standalone="no"?>
<!DOCTYPE svg PUBLIC "-//W3C//DTD SVG 20010904//EN"
 "http://www.w3.org/TR/2001/REC-SVG-20010904/DTD/svg10.dtd">
<svg version="1.0" xmlns="http://www.w3.org/2000/svg"
 width="300.000000pt" height="300.000000pt" viewBox="0 0 300.000000 300.000000"
 preserveAspectRatio="xMidYMid meet">
<metadata>
Created by potrace 1.10, written by Peter Selinger 2001-2011
</metadata>
<g transform="translate(0.000000,300.000000) scale(0.100000,-0.100000)"
fill="#000000" stroke="none">
<path d="M280 1500 l0 -1330 30 0 30 0 0 1293 0 1292 1160 0 1160 0 0 -1292 0
-1293 30 0 30 0 0 1330 0 1330 -1220 0 -1220 0 0 -1330z"/>
<path d="M395 1435 l0 -1242 65 46 c36 25 208 147 383 270 l317 224 0 701 0
701 -327 232 c-181 127 -353 249 -383 271 l-55 40 0 -1243z m388 917 c175
-123 322 -232 327 -242 6 -11 10 -143 10 -319 0 -249 -2 -301 -14 -301 -7 0
-19 6 -26 14 -10 13 -40 24 -158 62 -22 7 -72 -51 -72 -83 0 -22 -8 -31 -33
-43 -43 -20 -58 -62 -31 -91 10 -12 29 -25 40 -29 18 -7 22 -19 26 -84 5 -80
23 -116 58 -116 33 0 147 40 172 60 14 10 28 16 32 13 3 -3 6 -101 6 -216 l0
-209 -33 -32 c-18 -17 -104 -80 -190 -141 -87 -60 -217 -152 -290 -203 -73
-52 -140 -98 -149 -103 -17 -9 -18 48 -18 1146 0 922 3 1155 13 1149 6 -4 155
-108 330 -232z m204 -849 l84 -27 -3 -135 -3 -134 -67 -23 c-36 -12 -76 -25
-87 -29 -20 -6 -21 -3 -21 88 0 98 4 107 47 107 13 0 15 -11 11 -65 -2 -36 -1
-65 3 -65 3 0 21 3 38 6 l31 7 0 103 c0 56 -3 105 -7 107 -5 3 -23 8 -40 12
-32 6 -33 6 -27 -24 7 -32 4 -35 -33 -25 -21 6 -23 13 -23 65 0 33 3 59 7 59
4 0 44 -12 90 -27z m-69 -109 c29 -4 55 -10 57 -14 2 -4 -34 -11 -80 -16 l-85
-9 0 28 c0 27 2 29 28 23 15 -3 51 -9 80 -12z"/>
<path d="M2565 2649 c-22 -17 -194 -139 -382 -272 l-343 -242 0 -701 0 -701
317 -224 c175 -123 347 -245 383 -270 l65 -46 0 1243 c0 684 0 1244 0 1244 0
0 -18 -14 -40 -31z m-5 -1214 c0 -909 -3 -1145 -12 -1145 -12 0 -551 377 -630
441 l-38 30 0 224 c0 124 3 225 7 225 4 0 17 -9 29 -21 23 -22 141 -69 173
-69 42 0 56 25 61 112 4 73 7 83 25 86 70 13 76 99 9 127 -29 12 -34 19 -34
46 0 41 -25 69 -61 69 -43 0 -161 -46 -179 -70 -9 -11 -19 -18 -23 -14 -4 4
-7 148 -7 320 l0 312 33 27 c61 51 622 444 635 445 9 0 12 -235 12 -1145z
m-449 38 c-1 -32 -8 -61 -15 -65 -23 -16 -36 -8 -36 23 0 24 -4 29 -17 25 -68
-18 -63 -8 -63 -116 0 -54 3 -101 8 -103 4 -3 22 -8 40 -12 l32 -7 0 67 c0 63
1 66 23 63 21 -3 22 -8 25 -100 l3 -97 -91 30 -90 31 0 132 0 132 78 26 c112
36 108 38 103 -29z m89 -88 c0 -28 -6 -29 -109 -19 -67 8 -83 23 -23 25 20 1
51 5 67 9 55 14 65 12 65 -15z"/>
</g>
</svg>
