<?xml version="1.0" standalone="no"?>
<!DOCTYPE svg PUBLIC "-//W3C//DTD SVG 20010904//EN"
 "http://www.w3.org/TR/2001/REC-SVG-20010904/DTD/svg10.dtd">
<svg version="1.0" xmlns="http://www.w3.org/2000/svg"
 width="512.000000pt" height="512.000000pt" viewBox="0 0 512.000000 512.000000"
 preserveAspectRatio="xMidYMid meet">
<metadata>
Created by potrace 1.16, written by Peter Selinger 2001-2019
</metadata>
<g transform="translate(0.000000,512.000000) scale(0.100000,-0.100000)"
fill="#000000" stroke="none">
<path d="M2226 5104 c-782 -100 -1477 -564 -1886 -1259 -175 -297 -289 -646
-331 -1014 -17 -156 -7 -534 20 -686 39 -226 93 -410 177 -603 131 -303 300
-549 543 -793 400 -399 871 -636 1441 -726 163 -26 577 -26 740 0 564 89 1050
334 1441 726 357 359 601 809 699 1292 57 278 65 664 21 928 -125 736 -531
1353 -1156 1755 -311 201 -677 333 -1058 381 -148 19 -500 18 -651 -1z m1068
-920 c250 -64 426 -291 426 -549 0 -137 -55 -284 -143 -381 l-45 -49 -54 56
c-29 31 -69 68 -89 82 l-35 26 11 79 c11 72 15 82 53 120 85 85 81 208 -11
289 -64 56 -179 59 -244 6 -101 -82 -104 -220 -5 -310 30 -28 34 -36 28 -66
l-6 -34 -113 4 c-202 9 -332 -41 -472 -182 -91 -91 -124 -145 -158 -265 l-25
-84 -118 -69 c-66 -38 -233 -135 -372 -214 l-252 -145 -93 34 -92 35 -44 72
-44 72 12 91 c6 50 16 98 21 107 4 9 42 34 83 56 l75 39 43 -28 c54 -36 74
-27 75 35 1 24 2 49 2 56 1 6 47 37 102 69 l100 56 41 -27 c32 -21 46 -25 63
-18 17 8 21 19 21 64 l0 53 90 53 c49 29 99 53 110 53 12 0 36 -11 54 -24 28
-21 36 -23 52 -13 15 9 19 22 18 58 -1 25 1 51 5 57 4 6 53 39 110 72 l103 60
7 81 c4 44 14 104 23 132 53 183 216 341 404 391 72 20 207 20 283 0z m12
-439 c28 -19 37 -106 23 -235 -18 -181 -90 -373 -185 -494 -51 -64 -70 -77
-101 -65 -36 13 -29 56 19 119 49 65 119 211 141 295 24 88 40 240 32 301 -5
45 -3 56 14 73 25 25 30 25 57 6z m-154 -340 c22 -9 18 -29 -26 -135 l-32 -75
-52 -6 c-138 -17 -212 -159 -151 -287 62 -127 253 -139 335 -21 31 45 44 133
26 179 -8 20 -4 36 18 80 15 30 38 83 50 118 12 34 27 62 32 62 22 0 136 -131
170 -195 53 -102 71 -175 71 -280 -2 -245 -155 -455 -390 -535 l-78 -26 -170
-634 c-94 -349 -174 -640 -177 -646 -4 -6 -47 -28 -94 -49 -92 -39 -101 -40
-202 -10 -44 13 -56 24 -106 90 -31 41 -56 84 -56 97 0 42 33 143 52 161 11 9
31 17 43 17 62 0 76 44 25 81 -16 12 -31 28 -34 36 -9 24 45 223 63 232 9 5
33 11 53 15 55 10 61 41 14 81 -20 16 -36 38 -36 48 0 32 41 181 56 204 9 15
28 24 58 28 62 10 69 39 21 80 -43 37 -43 48 -6 190 l29 110 -54 58 c-97 105
-144 227 -144 375 0 269 174 490 436 557 59 15 220 15 256 0z"/>
</g>
</svg>
